# xmcd
#
# Track frame offsets:
# 150
# 19126
# 33227
# 46596
# 61662
# 76356
# 95082
# 108173
# 119742
# 136631
# 149112
# 161844
# 172816
# 185081
# 200423
#
# Disc length: 2869 seconds
#
#
# Revision: 0
# Processed by: cddbd v1.5.2PL0 Copyright (c) Steve Scherf et al.
# Submitted via: FreeRIP 2.951 
#
DISCID=ca0b330f
DTITLE=Various Artist - Hot Country Hits
DYEAR=1900
DGENRE=Country
TTITLE0=Ray Price - For The good times
TTITLE1=Glen Campbell - Rhinestone Cowboy
TTITLE2=Billie Jo Spears - What I've Got In Mind
TTITLE3=Charly Pride - All I have To offer You is Me
TTITLE4=Charlie Rich - My Elusive Draems
TTITLE5=Dolly Parton - Starting Over again
TTITLE6=Conway twitty - Hurt Her More Than She Loves Me
TTITLE7=Don Williams - Turn Out The Lights And Love Me tonight
TTITLE8=Donna Fargo - U.S.Of A.
TTITLE9=Ferlin Huskey - Wings Of a dove
TTITLE10=Jim Reeves - Welcome To My world
TTITLE11=Loretta Lynn - They Don't Make ' Em Like My daddy
TTITLE12=Marty Robbins - Ribbon Of darkness
TTITLE13=Merle Haggard - I Threw Away The Rose
TTITLE14=Tammy Wynette - Till I Can Make It On My own
EXTD=
EXTT0=
EXTT1=
EXTT2=
EXTT3=
EXTT4=
EXTT5=
EXTT6=
EXTT7=
EXTT8=
EXTT9=
EXTT10=
EXTT11=
EXTT12=
EXTT13=
EXTT14=
PLAYORDER=
